<svg height="512" width="512" xmlns="http://www.w3.org/2000/svg"><path d="M221.992 154.31l.02-.019c16.101-11.728 35.924-18.647 57.367-18.647 11.985 0 23.38 1.864 33.965 5.848.687.248 1.596.404 2.009.404 2.531 0 4.389-1.737 4.404-4.197.006-1.672-.823-3.066-1.894-4.055-28.04-25.818-57.827-36.479-57.827-36.479-66.473 26.581-115.355 90.862-116.755 164.325-.601 20.898 4.389 42.211 15.611 61.646 6.656 11.534 14.99 21.504 24.5 29.776-18.201-8.102-34.096-21.808-44.822-40.374-5.995-10.384-10.085-21.18-11.929-32.331-.122-.717-.435-1.587-.646-1.94-1.258-2.19-3.697-2.939-5.833-1.707-1.459.819-2.243 2.243-2.556 3.657-8.348 37.191-2.682 68.322-2.682 68.322 57.074 44.918 138.729 54.745 203.52 17.353 30.475-17.605 50.03-46.867 56.252-78.897l.021.041c2.102 19.817-1.829 40.423-12.546 59.009-5.99 10.374-13.297 19.312-22.033 26.503-.567.466-1.158 1.173-1.364 1.525-1.263 2.183-.688 4.668 1.434 5.909 1.45.85 3.065.817 4.45.374 36.388-11.362 60.508-31.827 60.508-31.827 10.192-70.646-20.837-144.911-83.388-182.956-29.374-18.242-66.08-22.924-99.786-11.263zm133.068 88.746c.939 4.687 1.46 9.505 1.46 14.404 0 46.099-43.19 83.452-96.479 83.452-53.292 0-96.482-37.354-96.482-83.452 0-4.899.515-9.717 1.459-14.404 20.025-20.535 55.08-34.181 95.022-34.181 39.935 0 74.995 13.646 95.02 34.181z"/><path d="M242.219 222.642c7.418 2.605 12.742 9.667 12.742 17.979 0 10.525-8.515 19.041-19.04 19.041-8.312 0-15.378-5.313-17.974-12.748-2.329 5.484-3.606 11.505-3.606 17.828 0 25.253 20.464 45.695 45.701 45.695 25.242 0 45.7-20.442 45.7-45.695 0-25.242-20.463-45.706-45.7-45.706a45.707 45.707 0 00-17.823 3.606z"/><path d="M256 0C114.615 0 0 114.615 0 256s114.615 256 256 256 256-114.615 256-256S397.385 0 256 0zm172.543 362.639s-65.762 59.16-168.507 59.16-168.506-59.16-168.506-59.16C71.203 235.874 149.998 110.362 260.041 70.131c110.038 40.231 188.824 165.743 168.502 292.508z"/></svg>