<?xml version="1.0" encoding="UTF-8"?>
<svg width="26" height="26" version="1.1" viewBox="0 0 26 26" xmlns="http://www.w3.org/2000/svg" xmlns:cc="http://creativecommons.org/ns#" xmlns:dc="http://purl.org/dc/elements/1.1/" xmlns:rdf="http://www.w3.org/1999/02/22-rdf-syntax-ns#" fill="#c4c4c4">
 <metadata>
  <rdf:RDF>
   <cc:Work rdf:about="">
    <dc:format>image/svg+xml</dc:format>
    <dc:type rdf:resource="http://purl.org/dc/dcmitype/StillImage"/>
    <dc:title/>
   </cc:Work>
  </rdf:RDF>
 </metadata>
 <defs>
  <style>.cls-1{fill:none;}</style>
 </defs>
 <g transform="translate(-3,-3)" data-name="Layer 2">
  <path d="m16 29a13 13 0 1 1 13-13 13 13 0 0 1-13 13zm0-24a11 11 0 1 0 11 11 11 11 0 0 0-11-11z"/>
  <path d="m16 17a5 5 0 1 1 5-5 5 5 0 0 1-5 5zm0-8a3 3 0 1 0 3 3 3 3 0 0 0-3-3z"/>
  <path d="m25.55 24a1 1 0 0 1-0.74-0.32 11.35 11.35 0 0 0-8.35-3.68h-0.92a11.27 11.27 0 0 0-7.85 3.16 1 1 0 0 1-1.38-1.44 13.24 13.24 0 0 1 9.23-3.72h0.92a13.39 13.39 0 0 1 9.82 4.32 1 1 0 0 1-0.73 1.68z"/>
 </g>
 <g id="frame" transform="translate(-3.3012 -1.9459)">
  <rect class="cls-1" width="32" height="32"/>
 </g>
</svg>
