<?xml version="1.0" encoding="UTF-8"?>
<svg id="mail" width="88" height="72" enable-background="new 0 0 96 96" fill="#c4c4c4" version="1.1" viewBox="0 0 88 72" xml:space="preserve" xmlns="http://www.w3.org/2000/svg" xmlns:cc="http://creativecommons.org/ns#" xmlns:dc="http://purl.org/dc/elements/1.1/" xmlns:rdf="http://www.w3.org/1999/02/22-rdf-syntax-ns#"><metadata><rdf:RDF><cc:Work rdf:about=""><dc:format>image/svg+xml</dc:format><dc:type rdf:resource="http://purl.org/dc/dcmitype/StillImage"/><dc:title/></cc:Work></rdf:RDF></metadata><path d="m76 0h-64c-6.627 0-12 5.373-12 12v48c0 6.627 5.373 12 12 12h64c6.627 0 12-5.373 12-12v-48c0-6.627-5.373-12-12-12zm0 8c0.459 0 0.893 0.093 1.303 0.235l-33.303 26.642-33.303-26.642c0.411-0.142 0.844-0.235 1.303-0.235zm0 56h-64c-2.21 0-4-1.79-4-4v-43.677l33.501 26.8c0.73 0.585 1.615 0.877 2.499 0.877s1.769-0.292 2.499-0.877l33.501-26.8v43.677c0 2.21-1.79 4-4 4z"/></svg>
