<svg xmlns="http://www.w3.org/2000/svg" width="847.728" viewBox="0 0 635.796 635.796" height="847.728"><linearGradient gradientTransform="scale(1.24179)" y2="0" y1="512" x2="256" x1="256" gradientUnits="userSpaceOnUse" id="a"><stop stop-color="#ffd600" offset="0"/><stop stop-color="#ff0095" offset=".527"/><stop stop-color="#f2069c" offset=".58"/><stop stop-color="#cf14b0" offset=".679"/><stop stop-color="#962ccf" offset=".813"/><stop stop-color="#494dfa" offset=".975"/><stop stop-color="#3f51ff" offset=".995"/></linearGradient><path fill="url(#a)" d="M635.796 317.898c0 59.092-16.128 114.43-44.22 161.845a319.55 319.55 0 01-65.397 78.315c-53.353 46.31-122.282 75.143-197.886 77.568-3.453.117-6.917.17-10.395.17-3.478 0-6.941-.053-10.395-.17-75.23-2.41-143.83-30.957-197.071-76.85a319.268 319.268 0 01-67.537-81.308C15.625 430.576 0 376.054 0 317.898c0-56.21 14.586-109.02 40.184-154.836C80.086 91.66 146.725 37.225 226.549 13.326 255.474 4.657 286.145 0 317.899 0c31.752 0 62.423 4.657 91.348 13.325 79.29 23.744 145.58 77.622 185.56 148.321 26.093 46.14 40.99 99.46 40.99 156.252zm0 0"/><g fill="#f1f1f1"><path d="M537.917 219.644c-2.828-65.102-57.295-117.201-123.828-117.201H218.886c-66.556 0-121.023 52.11-123.84 117.22a113.05 113.05 0 00-.12 5.31v192.944a121 121 0 002.605 25.027c20.177 37.794 50.09 69.73 86.431 92.551 11.078 3.225 22.805 4.952 34.924 4.952H414.09c12.12 0 23.842-1.727 34.924-4.952 36.329-22.821 66.231-54.745 86.42-92.521a121.287 121.287 0 002.605-25.057V224.973c0-1.787-.038-3.564-.121-5.329zm-40.335 198.273c0 45.512-37.461 82.538-83.493 82.538H218.886c-46.043 0-83.505-37.026-83.505-82.538V224.973c0-45.512 37.462-82.538 83.505-82.538H414.09c46.032 0 83.493 37.026 83.493 82.538zm0 0"/><path d="M316.486 206.496c-64.121 0-116.296 51.573-116.296 114.955 0 63.381 52.175 114.943 116.296 114.943 64.124 0 116.288-51.562 116.288-114.943 0-63.382-52.164-114.955-116.288-114.955zm0 189.906c-41.823 0-75.837-33.623-75.837-74.951 0-41.34 34.014-74.962 75.837-74.962 41.814 0 75.829 33.622 75.829 74.962 0 41.328-34.015 74.95-75.83 74.95zm145.33-192.899c0 14.6-11.976 26.438-26.746 26.438-14.774 0-26.75-11.838-26.75-26.438 0-14.604 11.976-26.438 26.75-26.438 14.77 0 26.746 11.834 26.746 26.438zm0 0"/></g></svg>